<!DOCTYPE svg PUBLIC "-//W3C//DTD SVG 1.1//EN" "http://www.w3.org/Graphics/SVG/1.1/DTD/svg11.dtd">
<!-- Uploaded to: SVG Repo, www.svgrepo.com, Transformed by: SVG Repo Mixer Tools -->
<svg fill="#55ede8" height="800px" width="800px" version="1.1" id="Layer_1" xmlns="http://www.w3.org/2000/svg" xmlns:xlink="http://www.w3.org/1999/xlink" viewBox="0 0 392.598 392.598" xml:space="preserve" stroke="#55ede8">
<g id="SVGRepo_bgCarrier" stroke-width="0"/>
<g id="SVGRepo_tracerCarrier" stroke-linecap="round" stroke-linejoin="round"/>
<g id="SVGRepo_iconCarrier"> <g> <g> <path d="M229.042,137.668H52.105c-6.012,0-10.925,4.848-10.925,10.925c0,6.012,4.848,10.925,10.925,10.925h176.937 c6.012,0,10.925-4.848,10.925-10.925C239.903,142.516,235.055,137.668,229.042,137.668z"/> </g> </g> <g> <g> <path d="M229.042,44.189H52.105c-6.012,0-10.925,4.849-10.925,10.925c0,5.947,4.848,10.925,10.925,10.925h176.937 c6.012,0,10.925-4.849,10.925-10.925C239.968,49.102,235.119,44.189,229.042,44.189z"/> </g> </g> <g> <g> <path d="M229.042,90.864H52.105c-6.012,0-10.925,4.849-10.925,10.925c0,6.012,4.848,10.925,10.925,10.925h176.937 c6.012,0,10.925-4.848,10.925-10.925C239.903,95.777,235.055,90.864,229.042,90.864z"/> </g> </g> <g> <g> <path d="M281.083,135.082V31.712c0-17.39-14.158-31.547-31.547-31.547H31.547C14.158,0.165,0,14.322,0,31.712V171.93 c0,17.39,14.158,31.547,31.547,31.547h4.267v57.535c0,4.396,2.715,8.275,6.723,10.02c2.844,1.228,8.792,0.711,11.895-2.392 l65.293-65.293h15.968c-5.883,12.541-8.986,25.859-8.986,39.434c0,60.251,59.669,109.253,132.913,109.253 c9.18,0,18.36-0.776,27.539-2.327l54.497,40.727c2.457,2.457,8.404,2.457,11.442,1.034c3.685-1.745,6.012-5.624,6.012-9.762 v-66.327c21.657-19.911,33.487-45.576,33.487-72.533C392.533,188.48,345.341,143.615,281.083,135.082z M115.135,181.563v0.065 c-2.844,0-5.624,1.164-7.758,3.168l-49.842,49.842v-42.214c0-6.012-4.848-10.925-10.925-10.925H31.547 c-5.301,0-9.632-4.331-9.632-9.632V31.712c0-5.301,4.331-9.632,9.632-9.632h218.117c5.301,0,9.632,4.331,9.632,9.632V171.93 c0,5.301-4.331,9.632-9.632,9.632H115.135z M341.075,302.258c-2.457,2.069-3.879,5.107-3.879,8.339v49.519l-40.857-30.513 c-2.457-1.875-5.624-2.521-8.663-1.939c-9.244,1.875-18.683,2.844-28.057,2.844c-61.285,0-111.127-39.24-111.127-87.467 c0-13.77,4.202-27.281,12.024-39.434h89.148c17.39,0,31.547-14.158,31.547-31.547v-14.869 c51.071,7.951,89.535,43.96,89.535,85.786C370.747,264.892,360.21,286.031,341.075,302.258z"/> </g> </g> <g> <g> <path d="M201.18,232.245h-4.913c-6.012,0-10.925,4.849-10.925,10.925c0,6.012,4.848,10.925,10.925,10.925h4.913 c6.012,0,10.925-4.849,10.925-10.925C212.105,237.094,207.257,232.245,201.18,232.245z"/> </g> </g> <g> <g> <path d="M267.766,232.245h-4.913c-6.012,0-10.925,4.849-10.925,10.925c0,6.012,4.848,10.925,10.925,10.925h4.913 c6.012,0,10.925-4.849,10.925-10.925C278.691,237.094,273.778,232.245,267.766,232.245z"/> </g> </g> <g> <g> <path d="M334.352,232.245h-4.913c-6.012,0-10.925,4.849-10.925,10.925c0,6.012,4.849,10.925,10.925,10.925h4.913 c6.012,0,10.925-4.849,10.925-10.925C345.277,237.094,340.364,232.245,334.352,232.245z"/> </g> </g> </g>
</svg>