<!DOCTYPE svg PUBLIC "-//W3C//DTD SVG 1.1//EN" "http://www.w3.org/Graphics/SVG/1.1/DTD/svg11.dtd">
<!-- Uploaded to: SVG Repo, www.svgrepo.com, Transformed by: SVG Repo Mixer Tools -->
<svg fill="#68eaf3" width="100px" height="100px" viewBox="0 0 24 24" xmlns="http://www.w3.org/2000/svg">
<g id="SVGRepo_bgCarrier" stroke-width="0"/>
<g id="SVGRepo_tracerCarrier" stroke-linecap="round" stroke-linejoin="round"/>
<g id="SVGRepo_iconCarrier">
<path d="M2.293,20.293,18.586,4H15a1,1,0,0,1,0-2h6a1.01,1.01,0,0,1,.382.077A1,1,0,0,1,22,3V9a1,1,0,0,1-2,0V5.414L3.707,21.707a1,1,0,0,1-1.414-1.414ZM2,6a4,4,0,1,1,4,4A4,4,0,0,1,2,6ZM4,6A2,2,0,1,0,6,4,2,2,0,0,0,4,6Zm17.641,8.232a1,1,0,0,0-1.41.128l-4.3,5.159-2.226-2.226a1,1,0,0,0-1.414,1.414l3,3A1,1,0,0,0,16,22h.045a1,1,0,0,0,.724-.359l5-6A1,1,0,0,0,21.641,14.232Z"/>
</g>
</svg>